<?xml version="1.0" standalone="no"?><!DOCTYPE svg PUBLIC "-//W3C//DTD SVG 1.1//EN" "http://www.w3.org/Graphics/SVG/1.1/DTD/svg11.dtd"><svg t="1775657201358" class="icon" viewBox="0 0 3072 1024" version="1.1" xmlns="http://www.w3.org/2000/svg" p-id="10967" xmlns:xlink="http://www.w3.org/1999/xlink" width="600" height="200"><path d="M384.512 560.042667C288.426667 532.48 218.453333 498.602667 174.506667 458.581333a195.754667 195.754667 0 0 1-65.365334-149.333333c0-66.901333 26.624-122.112 79.957334-165.632C242.773333 99.669333 312.32 77.653333 397.909333 77.653333c58.368 0 110.250667 11.264 155.733334 33.877334 45.909333 22.528 81.322667 53.674667 106.154666 93.269333 25.344 39.68 37.973333 83.029333 37.973334 130.133333h-112.64c0-51.370667-16.298667-91.562667-48.981334-120.746666-32.682667-29.610667-78.762667-44.373333-138.24-44.373334-55.210667 0-98.389333 12.288-129.450666 36.693334-30.72 24.149333-46.08 57.856-46.08 101.034666 0 34.56 14.506667 64 43.690666 88.064 29.610667 23.722667 79.530667 45.482667 149.930667 65.28 70.826667 19.882667 126.037333 41.813333 165.632 65.962667 40.106667 23.722667 69.632 51.541333 88.746667 83.370667 19.370667 31.914667 29.098667 69.461333 29.098666 112.64 0 68.778667-26.794667 123.989333-80.469333 165.632-53.674667 41.216-125.44 61.866667-215.296 61.866666-58.282667 0-112.725333-11.093333-163.328-33.28-50.517333-22.528-89.6-53.248-117.248-92.16a225.28 225.28 0 0 1-40.789333-132.437333h112.64c0 51.370667 18.773333 91.989333 56.490666 121.941333 38.144 29.525333 88.917333 44.373333 152.234667 44.373334 59.136 0 104.448-12.117333 135.936-36.181334 31.573333-24.149333 47.274667-57.002667 47.274667-98.645333 0-41.557333-14.592-73.642667-43.776-96.256-29.184-22.869333-82.005333-45.482667-158.72-67.669333z m588.544-405.333334v152.746667h117.845333v83.456h-117.76v391.424c0 25.258667 5.12 44.373333 15.701334 57.173333 10.496 12.458667 28.416 18.688 53.674666 18.688 12.458667 0 29.525333-2.389333 51.285334-6.997333V938.666667a313.088 313.088 0 0 1-82.773334 11.690666c-48.213333 0-84.650667-14.592-109.141333-43.776-24.490667-29.184-36.693333-70.570667-36.693333-124.245333V390.912H750.250667v-83.370667h114.944V154.624h107.861333z m204.202667 462.506667c0-61.781333 12.032-117.418667 36.181333-166.826667 24.490667-49.322667 58.282667-87.466667 101.546667-114.346666 43.52-26.794667 93.013333-40.192 148.650666-40.192 86.016 0 155.392 29.696 208.213334 89.258666 53.333333 59.477333 79.957333 138.581333 79.957333 237.397334v7.594666c0 61.44-11.861333 116.650667-35.584 165.632a265.728 265.728 0 0 1-100.864 113.749334c-43.52 27.306667-93.781333 40.874667-150.528 40.874666-85.589333 0-154.965333-29.781333-208.213333-89.258666-52.906667-59.477333-79.36-138.24-79.36-236.288v-7.594667z m108.458666 12.8c0 70.058667 16.213333 126.293333 48.469334 168.618667 32.682667 42.410667 76.202667 63.573333 130.645333 63.573333 54.869333 0 98.389333-21.333333 130.645333-64.085333 32.341333-43.178667 48.469333-103.509333 48.469334-180.906667 0-69.12-16.554667-125.184-49.578667-167.936-32.682667-43.178667-76.288-64.853333-130.730667-64.853333-53.248 0-96.256 21.333333-128.853333 63.658666-32.682667 42.410667-49.066667 103.082667-49.066667 182.016z m854.613334 232.192c38.485333 0 72.106667-11.605333 100.949333-34.986667 28.757333-23.296 44.714667-52.48 47.786667-87.466666h102.144a195.669333 195.669333 0 0 1-37.376 103.253333 245.333333 245.333333 0 0 1-92.16 78.165333c-38.144 19.456-78.506667 29.184-121.344 29.184-85.930667 0-154.453333-28.586667-205.312-85.76-50.602667-57.6-75.861333-136.106667-75.861334-235.690666v-18.090667c0-61.44 11.264-116.053333 33.877334-163.84 22.528-47.872 54.784-84.992 96.768-111.445333 42.410667-26.453333 92.416-39.68 149.930666-39.68 70.826667 0 129.536 21.162667 176.213334 63.573333 47.018667 42.410667 72.106667 97.450667 75.178666 165.034667h-102.058666c-3.072-40.789333-18.688-74.24-46.677334-100.266667-27.562667-26.453333-61.781333-39.68-102.656-39.68-54.784 0-97.365333 19.797333-127.744 59.477333-29.866667 39.253333-44.885333 96.256-44.885333 170.922667v20.48c0 72.704 14.933333 128.682667 44.885333 167.936 29.952 39.253333 72.704 58.88 128.341334 58.88z m548.352-215.808l-67.669334 70.570667V938.666667H2513.066667V42.666667h107.946666v541.866666l57.770667-69.376 196.522667-207.616h131.242666l-245.504 263.68L3035.136 938.666667h-126.549333l-219.904-292.266667z" fill="#1296db" fill-opacity=".85" p-id="10968"></path></svg>