<?xml version="1.0" standalone="no"?><!DOCTYPE svg PUBLIC "-//W3C//DTD SVG 1.1//EN" "http://www.w3.org/Graphics/SVG/1.1/DTD/svg11.dtd"><svg t="1707373153060" class="icon" viewBox="0 0 3200 1024" version="1.1" xmlns="http://www.w3.org/2000/svg" p-id="4239" xmlns:xlink="http://www.w3.org/1999/xlink" width="625" height="200"><path d="M430.933333 309.333333v189.866667c0 23.466667-21.333333 44.8-46.933333 44.8h-25.6v10.666667H576v-10.666667h-25.6c-25.6 0-46.933333-21.333333-46.933333-44.8V76.8c0-23.466667 21.333333-44.8 46.933333-44.8H576V21.333333H356.266667v10.666667h25.6c27.733333 0 46.933333 21.333333 46.933333 44.8v206.933333h-256V76.8c0-23.466667 21.333333-44.8 46.933333-44.8h25.6V21.333333H27.733333v10.666667h25.6c27.733333 0 46.933333 21.333333 46.933334 44.8v422.4c0 23.466667-21.333333 44.8-46.933334 44.8H27.733333v10.666667h217.6v-10.666667h-25.6c-25.6 0-46.933333-21.333333-46.933333-44.8v-189.866667h258.133333zM949.333333 416c2.133333 32-17.066667 78.933333-44.8 102.4-25.6 23.466667-61.866667 42.666667-110.933333 42.666667-55.466667 0-104.533333-29.866667-121.6-36.266667-10.666667-4.266667-23.466667-4.266667-32 2.133333-10.666667 6.4-14.933333 14.933333-17.066667 34.133334h-8.533333v-183.466667h4.266667c6.4 57.6 34.133333 89.6 51.2 108.8 27.733333 29.866667 76.8 49.066667 125.866666 40.533333 38.4-6.4 81.066667-49.066667 76.8-100.266666-2.133333-19.2-6.4-46.933333-44.8-72.533334-25.6-17.066667-59.733333-38.4-91.733333-61.866666-42.666667-27.733333-78.933333-57.6-89.6-70.4-14.933333-14.933333-32-38.4-32-74.666667 0-32 12.8-66.133333 36.266667-91.733333 25.6-23.466667 59.733333-42.666667 108.8-42.666667s87.466667 25.6 100.266666 32c12.8 6.4 27.733333 4.266667 34.133334 0 8.533333-4.266667 12.8-10.666667 14.933333-29.866667h8.533333V192h-8.533333c-8.533333-57.6-32-100.266667-49.066667-115.2-17.066667-14.933333-51.2-36.266667-100.266666-27.733333-46.933333 8.533333-70.4 29.866667-76.8 70.4-4.266667 29.866667 12.8 46.933333 21.333333 57.6 19.2 23.466667 136.533333 89.6 189.866667 136.533333 29.866667 23.466667 51.2 51.2 55.466666 102.4zM1122.133333 524.8c36.266667 10.666667 106.666667 19.2 155.733334-14.933333 59.733333-42.666667 70.4-145.066667-12.8-198.4-34.133333-21.333333-117.333333-19.2-145.066667-12.8v226.133333h2.133333z m0-258.133333c25.6 6.4 102.4 8.533333 132.266667-10.666667 46.933333-29.866667 64-76.8 53.333333-119.466667-4.266667-25.6-19.2-49.066667-42.666666-64-44.8-32-110.933333-27.733333-145.066667-17.066666v211.2h2.133333z m170.666667 14.933333c93.866667 32 121.6 100.266667 104.533333 168.533333-21.333333 81.066667-113.066667 98.133333-140.8 102.4-14.933333 2.133333-49.066667 2.133333-81.066666 2.133334h-198.4v-10.666667h32c19.2 0 42.666667-17.066667 42.666666-42.666667V76.8c0-25.6-23.466667-42.666667-42.666666-42.666667h-32v-8.533333h189.866666c44.8 0 70.4 4.266667 85.333334 8.533333 27.733333 4.266667 104.533333 27.733333 123.733333 102.4 14.933333 53.333333-12.8 125.866667-83.2 145.066667zM1896.533333 32l8.533334 181.333333h-10.666667c-4.266667-44.8-21.333333-76.8-44.8-98.133333-6.4-8.533333-19.2-19.2-36.266667-29.866667-27.733333-17.066667-70.4-34.133333-121.6-25.6-74.666667 12.8-115.2 64-134.4 110.933334-23.466667 59.733333-38.4 160 2.133334 245.333333 32 68.266667 96 98.133333 145.066666 104.533333 40.533333 6.4 134.4 4.266667 204.8-89.6l10.666667 8.533334c-55.466667 76.8-128 125.866667-209.066667 125.866666-106.666667 0-172.8-59.733333-202.666666-93.866666-32-36.266667-57.6-106.666667-57.6-166.4 0-53.333333 10.666667-113.066667 29.866666-149.333334 34.133333-59.733333 102.4-119.466667 194.133334-128 68.266667-6.4 113.066667 6.4 151.466666 27.733334 19.2 10.666667 29.866667 12.8 40.533334 8.533333 10.666667-4.266667 19.2-12.8 19.2-32h10.666666z" fill="#231815" p-id="4240"></path><path d="M2080 288L2346.666667 554.666667V23.466667L2080 288zM2346.666667 554.666667h531.2l-266.666667-266.666667L2346.666667 554.666667zM2611.2 288l266.666667-264.533333H2346.666667l264.533333 264.533333zM2877.866667 23.466667V554.666667l264.533333-266.666667-264.533333-264.533333zM228.266667 1004.8V787.2H256V874.666667c10.666667-17.066667 27.733333-25.6 49.066667-25.6 40.533333 0 51.2 25.6 51.2 53.333333v102.4h-27.733334v-89.6c0-25.6-6.4-44.8-34.133333-44.8-10.666667 0-29.866667 8.533333-34.133333 21.333333-6.4 14.933333-4.266667 27.733333-4.266667 36.266667v78.933333h-27.733333v-2.133333z m307.2-70.4v-14.933333c0-42.666667-21.333333-70.4-66.133334-72.533334-49.066667 0-70.4 36.266667-70.4 81.066667 0 44.8 19.2 78.933333 68.266667 78.933333 36.266667 0 64-17.066667 68.266667-51.2h-29.866667c-4.266667 21.333333-14.933333 32-36.266667 32-29.866667 0-40.533333-27.733333-38.4-53.333333h104.533334zM896 853.333333l-53.333333 151.466667H810.666667l-36.266667-125.866667-38.4 125.866667h-34.133333L650.666667 853.333333H682.666667l36.266666 121.6 38.4-121.6h36.266667l34.133333 119.466667 38.4-119.466667H896z m93.866667-4.266666c-49.066667 0-74.666667 34.133333-74.666667 81.066666 0 46.933333 25.6 81.066667 74.666667 81.066667s76.8-34.133333 76.8-81.066667c-2.133333-49.066667-27.733333-81.066667-76.8-81.066666z m140.8 155.733333h-27.733334V853.333333H1130.666667v29.866667c4.266667-21.333333 23.466667-32 44.8-32h10.666666v27.733333c-4.266667-2.133333-8.533333-2.133333-12.8-2.133333-36.266667 2.133333-42.666667 21.333333-42.666666 53.333333v74.666667z m81.066666-217.6h27.733334v219.733333h-27.733334V787.2z m187.733334 87.466667c-8.533333-19.2-27.733333-25.6-46.933334-25.6-46.933333 0-68.266667 38.4-68.266666 81.066666 0 38.4 17.066667 81.066667 64 81.066667 21.333333 0 42.666667-8.533333 53.333333-29.866667V1006.933333H1429.333333c0-8.533333-2.133333-17.066667-2.133333-27.733333v-192h-27.733333V874.666667z m78.933333-87.466667H1514.666667l-34.133334 74.666667h-21.333333l19.2-74.666667z m81.066667 61.866667c27.733333 0 61.866667 12.8 59.733333 46.933333h-29.866667c2.133333-19.2-12.8-25.6-29.866666-25.6-14.933333 0-27.733333 6.4-27.733334 23.466667s25.6 19.2 36.266667 21.333333c25.6 8.533333 55.466667 10.666667 55.466667 44.8 0 36.266667-36.266667 49.066667-68.266667 49.066667-32 0-57.6-14.933333-57.6-49.066667h29.866667c0 19.2 12.8 27.733333 29.866666 27.733333 17.066667 0 34.133333-6.4 34.133334-25.6 0-34.133333-91.733333-8.533333-91.733334-68.266666 0-32 32-44.8 59.733334-44.8z m183.466666-61.866667h29.866667v219.733333h-29.866667V787.2z m147.2 61.866667c-49.066667 0-76.8 34.133333-76.8 81.066666 0 46.933333 25.6 81.066667 76.8 81.066667 49.066667 0 76.8-34.133333 76.8-81.066667 0-49.066667-27.733333-81.066667-76.8-81.066666z m204.8 53.333333c-2.133333-19.2-10.666667-32-32-32-27.733333 0-38.4 23.466667-38.4 59.733333 0 36.266667 10.666667 59.733333 38.4 59.733334 19.2 0 29.866667-12.8 32-34.133334h27.733334c-2.133333 34.133333-27.733333 55.466667-61.866667 55.466667-49.066667 0-68.266667-34.133333-68.266667-78.933333s23.466667-81.066667 70.4-81.066667c32 0 55.466667 21.333333 57.6 53.333333h-25.6v-2.133333z m130.133334 8.533333c-36.266667 0-74.666667 12.8-74.666667 55.466667 0 29.866667 27.733333 42.666667 53.333333 42.666667 21.333333 0 38.4-8.533333 46.933334-27.733334 0 6.4 0 12.8 2.133333 21.333334 0 4.266667 6.4 2.133333 8.533333 2.133333h19.2c0-12.8-2.133333-25.6-2.133333-32v-72.533333c0-42.666667-29.866667-51.2-61.866667-51.2-29.866667 0-55.466667 12.8-57.6 44.8h29.866667c0-14.933333 14.933333-23.466667 27.733333-23.466667 29.866667 0 32 14.933333 32 42.666667h-23.466666v-2.133334z m102.4-123.733333h27.733333v219.733333h-27.733333V787.2z m192 196.266667c10.666667 19.2 29.866667 27.733333 53.333333 27.733333 44.8 0 64-40.533333 64-81.066667s-21.333333-81.066667-68.266667-81.066666c-19.2 0-38.4 6.4-46.933333 25.6v-87.466667h-27.733333V981.333333c0 6.4 0 14.933333-2.133334 23.466667h29.866667l-2.133333-21.333333z m85.333333-53.333334c0 27.733333-10.666667 59.733333-42.666667 59.733334-34.133333 0-42.666667-32-42.666666-59.733334 0-27.733333 10.666667-59.733333 42.666666-59.733333 34.133333 0 42.666667 29.866667 42.666667 59.733333z m136.533333-19.2c-36.266667 0-74.666667 12.8-74.666666 55.466667 0 29.866667 25.6 42.666667 53.333333 42.666667 21.333333 0 38.4-8.533333 46.933333-27.733334 0 6.4 0 12.8 2.133334 21.333334 0 4.266667 6.4 2.133333 8.533333 2.133333h19.2c0-12.8-2.133333-25.6-2.133333-32v-72.533333c0-42.666667-29.866667-51.2-61.866667-51.2-29.866667 0-55.466667 12.8-57.6 44.8h29.866667c0-14.933333 14.933333-23.466667 27.733333-23.466667 29.866667 0 32 14.933333 32 42.666667h-23.466667v-2.133334z m25.6 21.333334c0 27.733333-6.4 57.6-40.533333 57.6-17.066667 0-29.866667-8.533333-29.866667-27.733334 0-21.333333 23.466667-27.733333 40.533334-29.866666h29.866666z m104.533334-57.6c10.666667-19.2 32-27.733333 46.933333-27.733334 10.666667 0 57.6 2.133333 57.6 51.2V1002.666667h-27.733333v-96c0-25.6-10.666667-38.4-34.133334-38.4 0 0-14.933333 0-27.733333 10.666666-4.266667 4.266667-12.8 10.666667-12.8 40.533334V1002.666667h-29.866667v-149.333334h27.733334v21.333334z m151.466666 130.133333V787.2h27.733334v128l57.6-61.866667h36.266666l-64 64 68.266667 87.466667h-36.266667l-59.733333-81.066667v81.066667h-29.866667z m-2922.666666-192H27.733333v-25.6h177.066667v25.6H130.133333v192H100.266667v-192z m844.8 117.333333c0-32 10.666667-59.733333 44.8-59.733333s44.8 27.733333 44.8 59.733333c0 32-10.666667 59.733333-44.8 59.733334s-44.8-27.733333-44.8-59.733334z m366.933333-2.133333c0-27.733333 8.533333-59.733333 42.666667-59.733333 32 0 42.666667 32 42.666666 59.733333 0 27.733333-8.533333 61.866667-42.666666 61.866667-32 0-42.666667-32-42.666667-61.866667z m533.333333 2.133333c0-32 10.666667-59.733333 44.8-59.733333s44.8 27.733333 44.8 59.733333c0 32-10.666667 59.733333-44.8 59.733334s-44.8-27.733333-44.8-59.733334z m405.333334 2.133334c0 27.733333-6.4 57.6-40.533334 57.6-17.066667 0-29.866667-8.533333-29.866666-27.733334 0-21.333333 23.466667-27.733333 40.533333-29.866666h29.866667z m-1821.866667-17.066667c0-25.6 14.933333-44.8 38.4-44.8 27.733333 0 38.4 19.2 38.4 44.8h-76.8z" fill="#E7290F" p-id="4241"></path></svg>